<svg version="1.2" xmlns="http://www.w3.org/2000/svg" viewBox="0 0 1280 1280" width="256" height="256">
  <title>Samplebook Logo</title>
  <defs>
    <linearGradient id="circleGradient" x1="0%" y1="0%" x2="0%" y2="100%">
      <stop offset="69.99%" style="stop-color:#ffffff"/>
      <stop offset="70.01%" style="stop-color:#ffeb3b"/>
    </linearGradient>
  </defs>
  <path id="Circle" fill-rule="evenodd" fill="url(#circleGradient)"
    d="m640 1280c-353.9 0-640-286.1-640-640 0-353.9 286.1-640 640-640 353.9 0 640 286.1 640 640 0 353.9-286.1 640-640 640z" />
  <path
    d="m583 149c-39.9 2.4-78.6 11.4-111.2 25.8-41.2 18.3-78.1 47.7-105.2 83.9-28.6 38.1-45.1 82.2-50.6 135-1.3 13.3-1.3 51.3 0 63.2 5.4 46.7 19.1 85 43.4 121.3 32 48 79.6 86.4 140.3 113.2 19.9 8.8 26.3 11.1 151.1 53 57.5 19.4 70.4 24.2 93.6 34.9 26.8 12.4 45.3 24.3 59.7 38.7 17.2 17 25.9 33 31.1 56.8 2.4 11.4 2.7 39.9 0.4 51.3-4.7 22.6-14.3 41.5-29.9 58.1-30.8 32.7-73 49-126.9 49-60 0-112.5-21.1-163.5-65.8-42.9-37.4-84.1-95.7-116.5-164.6-8.1-17.3-19.8-44.4-25.2-59l-4-10.5h-40.6-40.7l-1.8 1.9-1.8 2 6.3 120.5c11.9 230.6 12.8 247.7 13.2 248.7 0.2 0.9 8.2 1.1 35.9 1.1 19.5 0 35.6-0.3 35.9-0.7 0.2-0.3 0.8-3.8 1.3-7.6 2.7-20.3 11.5-39.9 21.2-47.7 7.2-5.6 9.7-6.4 20.5-6.3 15 0.1 24.9 3.2 69.4 21.4 52.2 21.3 106.2 36.9 148.6 42.6 16 2.2 56.5 3.1 74.6 1.7 76.5-6 138.3-32.8 189-81.9 51.1-49.5 78.7-110.4 84.8-187.6 1.3-15.3 0.5-53.5-1.3-68.9-7.8-66.9-32.2-120.4-75.2-164.7-34.8-35.9-80.4-64.6-138.5-87.3-17.5-6.9-25.5-9.5-104.8-34.6-81.8-26-87-27.7-101.1-33.7-29.1-12.1-51-26.3-69.5-44.8-18.1-18.2-28.5-37-31.8-57.6-1.6-10-0.6-28.8 2-38.9 4.1-16.1 12.8-30.8 25.1-43.1 21.7-21.4 48.9-34.2 85.7-39.8 7.9-1.2 14.5-1.6 33.5-1.6 20.9 0 24.7 0.3 34.1 1.9 63.9 11.5 116.5 49 165.2 117.8 16.8 23.5 29.7 45.4 46.9 79.4l13 25.7 32.1 0.2 32.2 0.2 2.3-2.4 2.3-2.4-6.4-121c-3.4-66.4-6.9-132.7-7.7-147.3l-1.4-26.4-31.3 0.2c-17.3 0.2-31.7 0.6-31.9 0.9-0.3 0.3-1.2 3.1-2 6.3-3.7 14.3-11 27.9-18.4 34.2-8.7 7.5-17.1 9.5-29.7 7.2-4.5-0.8-9.7-1.8-11.8-2.1-2.1-0.4-10.6-3.8-19-7.7-50.2-23-104.2-38.1-149.1-41.9-9.2-0.7-35.2-0.9-45.9-0.2z" />
</svg>